<svg version="1.1" id="Layer_1" xmlns="http://www.w3.org/2000/svg" xmlns:xlink="http://www.w3.org/1999/xlink" x="0px" y="0px"
	 width="100%" viewBox="0 0 1024 1024" enable-background="new 0 0 1024 1024" xml:space="preserve">
<path fill="#000000" opacity="1.000000" stroke="none" 
	d="
M281.012390,659.337158 
	C276.184387,659.390869 271.852722,659.407227 267.523071,659.509583 
	C266.001801,659.545532 264.284607,659.907837 263.942719,657.860291 
	C263.626007,655.963745 262.937805,653.537476 265.491699,652.678650 
	C273.297760,650.053467 273.967072,644.086487 273.747284,637.062988 
	C272.560181,599.125244 271.777191,561.174438 270.494843,523.240234 
	C269.836975,503.779633 268.989716,484.327057 268.652435,464.855560 
	C268.560333,459.538452 268.059875,454.229187 267.790222,448.914124 
	C267.574677,444.666565 265.050385,442.090027 261.347961,440.889252 
	C258.126160,439.844330 257.120850,437.792969 257.609680,434.867157 
	C258.154785,431.604431 260.981628,432.791504 262.890442,432.735352 
	C298.997437,431.673248 335.119995,431.019745 371.210541,429.566467 
	C391.405121,428.753265 411.531281,428.241638 431.404694,432.267853 
	C468.324402,439.747559 491.939209,462.642426 503.292816,497.799530 
	C512.992188,527.834229 513.821655,558.602905 503.355438,588.667908 
	C490.316528,626.122986 463.023438,647.033752 424.118439,653.205750 
	C409.937805,655.455383 395.639313,655.993042 381.308990,656.368286 
	C348.039429,657.239441 314.775665,658.331299 281.012390,659.337158 
M457.639008,527.799866 
	C456.930725,523.883606 456.478668,519.900146 455.472931,516.061829 
	C448.602692,489.842407 431.931305,471.871063 403.883911,469.052155 
	C390.076080,467.664398 376.314758,468.186035 362.509644,468.781647 
	C351.039551,469.276489 339.548859,469.370087 328.065826,469.463257 
	C320.733826,469.522766 319.876892,470.086914 320.089478,477.255249 
	C320.400146,487.731018 320.476959,498.208282 320.881317,508.688232 
	C322.029755,538.453003 322.506561,568.243347 323.312622,598.021912 
	C323.499756,604.934875 323.945190,611.840881 324.268066,618.671997 
	C328.928131,619.596436 332.912231,618.866760 336.873627,618.791870 
	C359.812744,618.358337 382.785187,618.643738 405.615417,615.702087 
	C431.590302,612.355225 449.870270,595.669495 455.737610,570.290100 
	C458.925598,556.500305 459.440155,542.675354 457.639008,527.799866 
z"/>
<path fill="#000000" opacity="1.000000" stroke="none" 
	d="
M647.301575,473.737915 
	C628.556519,470.375854 610.183289,469.285431 591.827515,473.317017 
	C583.134644,475.226288 574.830444,478.275696 568.167480,484.488983 
	C558.235840,493.750397 560.913391,505.768311 573.777222,509.891907 
	C581.268372,512.293274 589.078125,513.092102 596.855591,513.595886 
	C615.450073,514.800415 634.090332,515.358093 652.665344,516.784851 
	C668.179077,517.976379 683.429443,520.971252 697.295410,528.511353 
	C734.029724,548.486938 739.035828,601.896118 702.466980,627.961792 
	C685.727173,639.893677 666.774841,645.560120 646.759155,648.223694 
	C608.238770,653.349670 571.162842,647.426514 535.284180,633.034424 
	C531.115540,631.362366 527.372620,630.601807 523.988647,634.566772 
	C522.528381,636.277710 520.645325,635.581421 518.981628,634.570374 
	C517.075745,633.412170 517.580688,631.794312 518.206665,630.175537 
	C524.091187,614.958984 529.974792,599.742126 535.867188,584.528687 
	C536.477783,582.952271 537.088440,581.205566 539.307190,581.731873 
	C541.075134,582.151245 543.050476,582.638794 543.196655,584.962402 
	C543.536133,590.360107 547.272217,593.126221 551.356567,595.541443 
	C561.527405,601.555725 572.744995,604.726746 584.212891,606.922058 
	C605.308594,610.960449 626.512512,612.159180 647.695129,607.592529 
	C656.841797,605.620605 665.822632,603.036377 672.662292,595.941895 
	C680.725220,587.578552 678.966003,576.364929 668.623352,571.050537 
	C662.426575,567.866394 655.562805,566.974060 648.808411,566.490417 
	C629.386475,565.099609 609.922607,564.304077 590.493164,563.006042 
	C577.857605,562.161804 565.244385,560.796997 553.310913,556.127808 
	C526.926086,545.804199 512.669434,518.443726 517.981079,489.504669 
	C521.984802,467.691589 535.383423,453.644867 554.430786,444.311676 
	C577.890625,432.816467 602.862366,429.723419 628.767212,431.412354 
	C651.941162,432.923248 673.258057,440.715485 694.473328,449.163788 
	C696.638184,450.025909 698.795837,450.906342 700.958557,451.773987 
	C704.922180,453.364288 708.722046,453.605865 712.158386,450.489655 
	C714.154724,448.679199 716.159546,449.253143 718.042419,450.672455 
	C720.084412,452.211731 718.939514,453.941162 718.155334,455.572601 
	C711.301453,469.830963 704.447632,484.089386 697.537781,498.320618 
	C696.864258,499.707977 696.550171,501.900055 694.303894,501.486145 
	C692.136169,501.086731 690.092529,500.115845 689.777039,497.500854 
	C689.201782,492.732391 686.144897,489.900208 682.389160,487.415924 
	C671.788147,480.403748 659.960144,476.601624 647.301575,473.737915 
z"/>
<path fill="#000000" opacity="1.000000" stroke="none" 
	d="
M696.088135,420.939270 
	C674.799744,403.934052 653.785706,387.153412 631.749390,369.556366 
	C642.604126,364.135468 651.805908,358.889618 661.817505,355.297760 
	C664.332031,354.395630 666.715027,355.561890 668.998108,356.653320 
	C680.565369,362.182953 692.219849,367.538391 703.670715,373.298981 
	C708.584412,375.770905 713.468689,377.065979 718.978027,376.794739 
	C725.076050,376.494507 731.200256,376.726135 738.612915,376.726135 
	C734.846436,373.869904 731.501099,373.627625 728.462891,372.805634 
	C709.102905,367.567871 691.762573,357.935333 674.792969,347.708984 
	C668.046814,343.643616 662.487549,343.924835 655.731140,347.343964 
	C634.492615,358.091766 613.052246,368.445831 591.594055,378.752411 
	C579.402466,384.608154 566.721558,388.362732 552.974670,385.316406 
	C547.368713,384.074097 542.310303,381.846924 538.996338,377.115601 
	C539.559082,374.793854 541.287354,374.249054 542.636108,373.375916 
	C582.898682,347.311279 623.204590,321.313507 663.406494,295.155762 
	C667.426941,292.539795 670.760376,292.387146 674.906250,294.711670 
	C700.179016,308.881805 725.575012,322.832092 750.853699,336.991730 
	C755.185913,339.418335 759.375916,340.271881 764.210388,338.865356 
	C768.515259,337.612823 772.961792,336.835052 777.361633,335.924133 
	C784.050659,334.539276 784.184937,334.552368 784.996094,341.504272 
	C786.150330,351.396790 787.112610,361.311981 788.122192,371.221039 
	C789.906921,388.737244 791.574890,406.266144 793.513794,423.765106 
	C793.887268,427.135986 792.907593,428.224762 789.679138,428.425385 
	C770.586365,429.612061 751.501465,430.924835 732.413330,432.187500 
	C731.583252,432.242401 730.744629,432.176910 729.916016,432.243439 
	C708.263489,433.982025 713.871826,434.819000 696.088135,420.939270 
z"/>
<path fill="#000000" opacity="1.000000" stroke="none" 
	d="
M302.621277,698.359741 
	C311.052521,705.323608 319.616119,711.589844 327.016418,718.621582 
	C326.619324,720.964661 325.174713,721.251465 324.017181,721.803162 
	C316.502106,725.385010 308.885986,728.767517 301.484039,732.568054 
	C298.161346,734.274109 295.333923,734.256958 292.068909,732.641235 
	C281.323395,727.323547 270.320557,722.498657 259.762054,716.839905 
	C253.070602,713.253662 246.116974,711.636902 238.759979,711.531372 
	C233.497711,711.455811 228.225037,712.104858 222.847427,712.437378 
	C223.121658,712.914978 223.233810,713.367859 223.422485,713.402405 
	C241.782364,716.760986 257.864990,725.484314 273.774628,734.653809 
	C278.533844,737.396790 283.572784,739.666504 288.255524,742.526489 
	C292.728607,745.258423 296.759521,745.052002 301.409332,742.781799 
	C324.752411,731.385010 348.209473,720.221680 371.627136,708.977600 
	C381.278076,704.343689 391.420776,702.203674 402.140503,702.887146 
	C407.956146,703.257935 413.211609,705.184570 417.912354,708.550781 
	C422.420929,711.779236 422.364685,712.925781 417.689270,715.927246 
	C388.960724,734.369873 360.214813,752.785400 331.485870,771.227356 
	C320.274445,778.424316 308.973969,785.492310 297.950562,792.967896 
	C293.093750,796.261475 289.040741,796.618835 283.775391,793.592529 
	C260.243347,780.067322 236.370926,767.132141 212.900909,753.502686 
	C206.065689,749.533386 199.528381,748.084778 192.007736,750.224548 
	C188.498825,751.222900 184.772324,751.506592 181.323120,752.652100 
	C177.053177,754.070129 175.514084,752.417114 175.142288,748.414185 
	C174.095718,737.146851 172.945206,725.889282 171.879578,714.623657 
	C170.392075,698.897827 169.292618,683.123657 167.287338,667.464905 
	C166.601517,662.109314 168.620911,661.107544 172.861832,660.728516 
	C182.791519,659.841003 192.696915,658.639038 202.638535,657.938660 
	C215.914352,657.003357 229.220261,656.502258 242.502487,655.647400 
	C247.316055,655.337646 251.136826,656.948547 254.823776,659.947021 
	C270.589050,672.768372 286.489594,685.423340 302.621277,698.359741 
z"/>
</svg>